<svg width="17" height="18" viewBox="0 0 17 18" fill="none" xmlns="http://www.w3.org/2000/svg">
<path d="M8.28854 14.1185C8.64614 14.1185 8.93603 13.8286 8.93603 13.471C8.93603 13.1134 8.64614 12.8235 8.28854 12.8235C7.93094 12.8235 7.64105 13.1134 7.64105 13.471C7.64105 13.8286 7.93094 14.1185 8.28854 14.1185Z" fill="#366671"/>
<path d="M10.0949 4.74927H6.4821C6.27958 4.74927 6.11481 4.90636 6.11481 5.0991V11.9284C6.11481 12.1213 6.27947 12.2782 6.4821 12.2782H10.0949C10.2974 12.2782 10.4622 12.1211 10.4622 11.9284V5.0991C10.4621 4.9062 10.2974 4.74927 10.0949 4.74927Z" fill="#366671"/>
<path d="M8.28893 0.978271C3.71154 0.978271 0.000732422 4.68935 0.000732422 9.26658C0.000732422 13.8438 3.71154 17.5552 8.28893 17.5552C12.8663 17.5552 16.5776 13.844 16.5776 9.26658C16.5776 4.68913 12.8663 0.978271 8.28893 0.978271ZM11.5136 13.3569C11.5136 13.99 11.0003 14.5034 10.3671 14.5034H6.21101C5.57788 14.5034 5.0645 13.9901 5.0645 13.3569V5.14036C5.0645 4.50723 5.57783 3.99384 6.21101 3.99384H10.3671C11.0002 3.99384 11.5136 4.50717 11.5136 5.14036V13.3569Z" fill="#366671"/>
</svg>
