<svg width="18" height="18" viewBox="0 0 18 18" fill="none" xmlns="http://www.w3.org/2000/svg">
<path d="M8.98893 0.592773C4.4115 0.592773 0.700653 4.30373 0.700653 8.88117C0.700653 13.4585 4.4115 17.1697 8.98893 17.1697C13.5664 17.1697 17.2775 13.4585 17.2775 8.88117C17.2775 4.30373 13.5664 0.592773 8.98893 0.592773ZM8.9891 3.50405L13.8939 6.56253H4.08432L8.9891 3.50405ZM13.955 11.4465H13.9545C13.9545 11.9371 13.5569 12.3346 13.0664 12.3346H4.91179C4.42122 12.3346 4.0237 11.937 4.0237 11.4465V6.75714C4.0237 6.70525 4.02901 6.6548 4.03763 6.60524L8.72387 9.5274C8.72961 9.53099 8.73575 9.53342 8.74166 9.53674C8.74785 9.54016 8.75415 9.54348 8.76045 9.54663C8.79354 9.5637 8.82764 9.57746 8.8625 9.58647C8.8661 9.58746 8.86969 9.5879 8.87328 9.58873C8.91152 9.59774 8.95025 9.60338 8.98893 9.60338H8.98921C8.98949 9.60338 8.98976 9.60338 8.98976 9.60338C9.02844 9.60338 9.06718 9.59791 9.10542 9.58873C9.10901 9.58785 9.1126 9.58746 9.11619 9.58647C9.151 9.57746 9.18499 9.5637 9.21825 9.54663C9.22455 9.54348 9.23085 9.54016 9.23704 9.53674C9.24289 9.53342 9.24908 9.53099 9.25483 9.5274L13.9411 6.60524C13.9497 6.6548 13.955 6.70514 13.955 6.75714V11.4465Z" fill="#366671"/>
</svg>
